<svg width="64" height="28" viewBox="0 0 64 28" fill="none" xmlns="http://www.w3.org/2000/svg">
<g clip-path="url(#clip0_203_265)">
<path d="M0.735352 21.5H13.4194V17.944H5.27135V1.47998H0.735352V21.5Z" fill="black"/>
<path d="M21.7578 18.728C19.4618 18.728 18.1738 17.048 18.1738 14.248V14.024C18.1738 11.224 19.5178 9.60002 21.7578 9.60002C24.0258 9.60002 25.3418 11.28 25.3418 14.08V14.276C25.3418 17.048 24.0258 18.728 21.7578 18.728ZM21.7298 21.808C26.1258 21.808 29.4578 18.868 29.4578 14.248V14.024C29.4578 9.46002 26.1538 6.52002 21.7578 6.52002C17.3618 6.52002 14.0298 9.51602 14.0298 14.108V14.332C14.0298 18.896 17.3618 21.808 21.7298 21.808Z" fill="black"/>
<path d="M37.8358 26.904C42.6518 26.904 45.5358 24.692 45.5638 20.352V6.85602H41.5318V9.04002C40.6918 7.55602 39.2638 6.52002 36.8838 6.52002C33.2438 6.52002 30.4438 9.46002 30.4438 13.66V13.856C30.4438 18.196 33.2718 20.856 36.8278 20.856C38.9838 20.856 40.7198 19.568 41.5318 18.14V20.352C41.5318 22.648 40.2998 23.936 37.8358 23.936C35.7638 23.936 34.8398 23.096 34.5878 21.808H30.5558C30.9478 24.832 33.1038 26.904 37.8358 26.904ZM38.0318 17.804C36.0158 17.804 34.5878 16.292 34.5878 13.856V13.632C34.5878 11.224 35.8478 9.60002 38.1158 9.60002C40.3278 9.60002 41.6438 11.112 41.6438 13.604V13.8C41.6438 16.292 40.1598 17.804 38.0318 17.804Z" fill="black"/>
<path d="M55.1328 18.728C52.8368 18.728 51.5488 17.048 51.5488 14.248V14.024C51.5488 11.224 52.8928 9.60002 55.1328 9.60002C57.4008 9.60002 58.7168 11.28 58.7168 14.08V14.276C58.7168 17.048 57.4008 18.728 55.1328 18.728ZM55.1048 21.808C59.5008 21.808 62.8328 18.868 62.8328 14.248V14.024C62.8328 9.46002 59.5288 6.52002 55.1328 6.52002C50.7368 6.52002 47.4048 9.51602 47.4048 14.108V14.332C47.4048 18.896 50.7368 21.808 55.1048 21.808Z" fill="black"/>
</g>
<defs>
<clipPath id="clip0_203_265">
<rect width="63" height="27" fill="white" transform="translate(0.170898 0.5)"/>
</clipPath>
</defs>
</svg>
